<svg id="Objects" xmlns="http://www.w3.org/2000/svg" viewBox="0 0 2200 2200"><defs><style>.cls-1{fill:#fc1212;}.cls-2{fill:#fd2b2b;}.cls-3{fill:#fd3f3f;}.cls-4{fill:#1d1d1b;}</style></defs><path class="cls-1" d="M1854.17,1570.15c.92,398.8-400.48,609.71-781.73,587.68-471.17-27.24-691.94-323.19-723.54-667.35C323.11,1209.58,464,939.34,611.45,786.36c-5.15,61.19.27,126.18,33.93,177.61s101.71,84,159.17,61.85C877.41,997.66,897.4,901,878.4,825.44s-64.66-142.41-83-218.1c-29.79-123,18.2-255.54,101.31-351.22S1094.06,96.86,1211.1,47.71c-70.38,82.21-79.71,210.65-21.93,302.09,55.18,87.36,156.3,132.71,234.55,200.34,131.64,113.78,195.07,312.92,120.55,469.85-20.11,42.35-48.92,80.15-69,122.48s-31,92.53-13,135.82,73.06,72.53,114.49,50.37c47.92-25.6,48.64-102.1,21.16-176.05C1760.79,1213.48,1853.76,1395.22,1854.17,1570.15Z"/><path class="cls-2" d="M1577.66,1865.23c-58.36,115.22-163.32,204.14-283.24,253q-19,7.72-38.44,14.18c-130.51,43.37-273.71,31.62-393.5-35.8-89.57-50.4-171.92-133.87-224.26-275.41-54.37-147-23.36-353.89,59.92-479.27.6,62.5,67.93,110.62,130.33,104.39s114.42-54.91,140.26-111.85,29.67-121.18,29.17-183.68-4.88-125.52,6-187.07,48.54-158.59,111.28-213.77c-58.39,113.61-10.75,225.31,48.57,319.48s135.69,127,175.93,288c28.23,113-28.78,221.25,85.25,251.55,87.92,23.36,156.37-79,152-138.56C1630.36,1588,1636,1750,1577.66,1865.23Z"/><path class="cls-3" d="M1320.54,2049.51c-52.07,71.57-121.53,111.42-239.62,106.69-121.89-4.87-194.65-73.39-245.33-168.61-44.92-84.4-51.15-190.63-30-281.12,39.44,74.61,92.93,105,165.93,114.77-70.09-123.42-11.45-344.14,149.42-461-32.11,49.84-25.49,113.17,1,165.5s70.47,96,113.42,139.16,86.23,87.57,110.81,140.59C1382.66,1884.12,1372.61,1978,1320.54,2049.51Z"/><path class="cls-4" d="M1824.17,1570.15a592,592,0,0,1-4.38,72,15.73,15.73,0,0,1-.44,3.15c-.44,2.75-.84,5.51-1.29,8.26q-1.45,8.87-3.21,17.69-3.31,16.71-7.73,33.17-4.53,16.83-10.19,33.32-2.58,7.53-5.41,15c-.94,2.46-1.9,4.93-2.87,7.38-.49,1.23-1,2.45-1.48,3.67-.21.54-2.33,5.62-1,2.49,1.13-2.68-1.65,3.76-2.14,4.85-1.06,2.4-2.14,4.78-3.24,7.16q-3.57,7.7-7.39,15.28-7.32,14.51-15.55,28.52t-17.25,27.37q-4.33,6.42-8.87,12.72c-1.5,2.1-3,4.19-4.57,6.26l-2.32,3.11c-.34.46-3.63,4.77-1.57,2.1,1.77-2.3-2.5,3.17-3.24,4.08q-2.41,3-4.88,6-5.34,6.49-10.87,12.83-10.66,12.2-22,23.77a604.43,604.43,0,0,1-49.16,44.82c-2,1.66-4.08,3.31-6.14,4.94-1.41,1.12-6.2,4.88-2.22,1.8-4.52,3.5-9.11,6.91-13.73,10.28q-13.39,9.75-27.27,18.84-28,18.38-57.72,34-15,7.92-30.3,15.17-7.38,3.49-14.85,6.84-3.73,1.68-7.49,3.31c-1.51.66-9.06,3.85-4.17,1.81a860.65,860.65,0,0,1-133.2,43.06q-34.26,8.13-69.07,13.61-8.39,1.32-16.79,2.49c-3.55.51.43,0,1-.12l-4.21.55c-3.28.42-6.57.82-9.85,1.2q-17.62,2.05-35.31,3.45a970.87,970.87,0,0,1-146.21.28q-20.71-1.5-41.35-3.76-9.7-1.08-19.37-2.31c-3.56-.45-.72-.08,0,0-1.59-.21-3.17-.44-4.76-.66q-5.52-.78-11-1.62-38.16-5.82-75.79-14.65-35.66-8.44-70.51-19.86-16.79-5.52-33.31-11.79-7.8-3-15.53-6.08l-7.65-3.15c-3.21-1.33.36.15.84.36l-5-2.17a697,697,0,0,1-116-64.19c-8.68-6-17.16-12.19-25.58-18.52a12,12,0,0,1-1.86-1.44c-1.95-1.56-3.91-3.1-5.86-4.67q-6.28-5.07-12.46-10.29-23.43-19.86-44.88-41.9-21.11-21.69-40.09-45.33c-1.76-2.19-3.5-4.4-5.24-6.6-3.58-4.52,2.26,3.07-1.18-1.55-3.11-4.18-6.24-8.33-9.29-12.56q-8.76-12.15-17-24.7c-21.91-33.49-40.46-68.9-56.46-105.56-2.34-5.36,1.49,3.72-.71-1.7-.91-2.23-1.83-4.45-2.73-6.69q-2.93-7.26-5.69-14.6-5.34-14.13-10.12-28.46-9.8-29.43-17.25-59.56-7.38-29.79-12.57-60.07-2.62-15.26-4.71-30.58c.74,5.43.11.7-.21-1.87s-.61-4.94-.89-7.41q-.94-8-1.73-16.1c-11.92-120.84,6.26-238.2,46.93-352.3,18.86-52.91,42-102.78,70.49-152.84q20.71-36.45,44.36-71.13,11.19-16.39,23-32.32,2.79-3.76,5.62-7.49c.63-.84,5.15-6.71,2.85-3.75q6.11-7.85,12.38-15.54,22.65-27.84,47.51-53.75l-51.21-21.22c-4.71,58.35.3,118.41,26.13,171.7,23.53,48.55,68.92,87.79,121.89,100.35,50.63,12,105.54-2.41,140-42.49,31.66-36.81,45.3-85.37,45.68-133.35.44-56.31-20.23-108.52-42.68-159.2-11.68-26.36-23.91-51.82-33.77-78.12-9.19-24.49-18.16-56-20.26-77.72-10.07-104,28.66-206.36,95-285,80.32-95.18,193.44-158.62,305.58-205.85L1189.89,26.5c-80.25,95-92.66,240.91-22.17,345.25,36.31,53.75,87.92,92.85,140.39,129.72,12.62,8.87,25.31,17.63,37.89,26.55q9.43,6.68,18.77,13.49,4,2.93,8,5.88c1.75,1.32,8.36,6.35,7,5.29A464.54,464.54,0,0,1,1444,612.52c18.21,20.7,33.13,41.66,48.22,68q10.74,18.76,19.67,38.5c.58,1.27,4,9.07,2.5,5.56,1.2,2.84,2.34,5.7,3.46,8.57q4.22,10.74,7.85,21.68,6.76,20.34,11.5,41.27a359.52,359.52,0,0,1,6.48,37,376.62,376.62,0,0,1-.31,85.69c.56-4.73-.37,2.52-.59,3.92q-.82,5.19-1.8,10.36-2.1,11.07-4.94,22a327.49,327.49,0,0,1-13.31,40.17c1.54-3.81-1.91,4.32-2.42,5.44q-2.54,5.53-5.27,11c-4,7.92-8.23,15.7-12.63,23.4-8.83,15.41-18.29,30.44-27.45,45.65-37.17,61.76-70.22,137.52-40.16,209.11,24.41,58.12,96.64,95.68,155.81,65.36,58.76-30.12,61.05-106.57,49.83-163a321.35,321.35,0,0,0-13.64-47.61l-36.9,36.91c3.72,1.41,7.45,2.83,11.12,4.38-4.21-1.78.39.22,1,.52,1.8.83,3.61,1.63,5.4,2.47q11.36,5.34,22.29,11.51,10.23,5.77,20,12.24,4.89,3.22,9.68,6.62c1.59,1.12,3.17,2.27,4.74,3.42,1.28.94,5.35,4,2.1,1.49a352.24,352.24,0,0,1,36.06,32.14q8.25,8.37,16,17.23,3.4,3.89,6.7,7.86,1.88,2.26,3.74,4.56s5.7,7.31,2.59,3.24a448.76,448.76,0,0,1,50.44,84.47c1.69,3.65,3.32,7.32,4.92,11-1.92-4.43,2.42,6,2.74,6.8q4.46,11.26,8.35,22.74a514.85,514.85,0,0,1,14.14,49.63q3.09,13.34,5.47,26.82,1.18,6.74,2.19,13.5c.11.69,1,6.91.53,3.53s.52,4.38.6,5a524,524,0,0,1,3.42,57.38c.08,16.21,13.72,30,30,30s30.08-13.73,30-30c-.76-142.06-57.44-292.59-169.73-383.83a389,389,0,0,0-108.6-62.64c-20.74-7.86-44.42,16.34-36.91,36.9a324.54,324.54,0,0,1,13.3,45.93c.68,3.33,1.31,6.66,1.86,10,.28,1.65.56,3.3.78,5-.1-.73-.4-3.32,0,.19a209.74,209.74,0,0,1,1.31,22.13,159.74,159.74,0,0,1-1,19.31c.6-5-.36,1.48-.7,3.17-.73,3.53-1.6,7-2.67,10.49-.77,2.49-1.62,5-2.6,7.39,2.14-5.26-.88,1.33-1.87,3.09-1.22,2.15-2.58,4.18-4,6.24-1.87,2.82.74-1,1-1.27-1.08,1.2-2.12,2.42-3.25,3.57-.79.81-6.93,5.9-4.26,4s-3.18,1.79-4.16,2.37c-1.15.69-2.38,1.29-3.59,1.88,1.33-.65,4.79-1.34-.51,0-1.3.35-2.63.74-3.92,1.13-.58.18-6.15,1.39-2.65.77,2.94-.51-4.09.24-5.41.25-1.88,0-9.91-.56-4.19.21a75.09,75.09,0,0,1-18.6-5.13c4.49,1.88-1.63-1-3-1.74q-3.73-2-7.29-4.38c-1.57-1-3.16-2.12-4.66-3.26.5.38,3.05,2.47.51.23s-4.95-4.45-7.26-6.87A65.26,65.26,0,0,1,1487,1258.5c-4.19-14.33-4.67-25.46-3.32-41.32,1-12.36,5.59-29.27,10.65-43.26,10.31-28.5,28.82-57,45.3-84,17-28,32.78-56.41,44.26-87.17,9.95-26.65,15.75-54.24,19.29-82.41,13.92-110.45-23-226.73-88.76-315.31-35.7-48.09-78.93-86.21-127.37-121.1-48-34.56-94.49-63-135.21-104-20.25-20.38-34.14-37.93-47.42-64-6.34-12.46-8.93-19.08-13.41-34.19q-2.62-8.83-4.59-17.85c-.77-3.51-1.47-7-2.09-10.56-.27-1.51-.5-3-.76-4.55-.86-5.1.44,4-.21-1.17a262.92,262.92,0,0,1-1.84-41.51q.3-9.24,1.23-18.45c.21-2.05.43-4.1.69-6.13-.08.66-.56,3.88,0,.34s1.16-7.1,1.85-10.63a263,263,0,0,1,11.07-40A190.41,190.41,0,0,1,1212.12,98q4.64-8,9.86-15.6c1.24-1.79,5.16-7.23,4.92-6.91-1.59,2.08,1.52-1.9,1.46-1.82,1.31-1.59,2.62-3.18,4-4.75,8.7-10.3,11.82-24.17,4.69-36.36-6.09-10.42-21.85-18.85-33.88-13.78C1099.87,62.27,999.46,115.06,916.93,192c-79.19,73.87-139.6,172.39-155.6,280.64C753,529,756.06,585.86,773.52,640.24S819.77,745.15,838.63,798a350.86,350.86,0,0,1,12.09,40.63c1,4.43,1.75,8.89,2.58,13.35,1.63,8.82-.44-6,.41,2.91.35,3.67.73,7.33,1,11a229.94,229.94,0,0,1-.06,30.5c-.2,2.76-.5,5.51-.73,8.27-.1,1.13-.8,5.9,0,.23-.93,6.32-2.13,12.59-3.66,18.79-1.07,4.36-2.29,8.7-3.68,13-.82,2.54-1.8,5-2.64,7.56-2.72,8.14,2.63-5.1-1,2.61-2.24,4.73-4.53,9.39-7.19,13.91q-1.31,2.22-2.7,4.4c-.64,1-6.91,9.78-2.73,4.38a109.82,109.82,0,0,1-10.2,11.36c-1.19,1.16-10.55,8.86-5.56,5.21a110.51,110.51,0,0,1-13.09,8.27c-2.32,1.24-4.68,2.41-7.1,3.46,6-2.62-3,.88-3.45,1-2.84.91-5.73,1.7-8.64,2.36q-2.88.66-5.81,1.16,4.65-.51-.81.06a138.92,138.92,0,0,1-17.67.14c-.47,0-9.94-1.34-3.79-.3-3.92-.66-7.8-1.48-11.65-2.49a125.65,125.65,0,0,1-17.11-5.68c5.17,2.18-3.86-1.95-3.88-2q-5.46-2.73-10.68-5.89-3.93-2.37-7.72-5c-.24-.17-7.46-5.53-3.77-2.62a150.49,150.49,0,0,1-15.77-14.52c-2.1-2.22-4.08-4.54-6.11-6.83-4.18-4.69.49,1.21-2.77-3.53-17.16-24.94-26-49-31.34-79.54-4.47-25.55-4.27-58.84-1.92-87.92,2.12-26.29-34.05-39.08-51.21-21.21-77.2,80.38-140,175.39-186.33,276.63-52.7,115.25-85.6,239.94-88,367.07-1.75,94.79,13.57,191.81,43.81,281.68,27.69,82.28,68.65,158.91,123.05,226.61,54.95,68.38,124.34,125.29,201.21,167.41,88.27,48.37,185.94,78.12,285.31,92.64,105.34,15.39,211.14,16,316.33-.9,95.84-15.42,189.82-45.88,275.38-91.94,83-44.68,157-105.22,214-180.45,57.65-76,92.43-165.92,104.54-260.31a579.68,579.68,0,0,0,4.55-73.44c0-16.21-13.79-30-30-30A30.38,30.38,0,0,0,1824.17,1570.15Z"/></svg>